<svg width="96" height="96" xmlns="http://www.w3.org/2000/svg" overflow="hidden"><defs><clipPath id="a"><path d="M0 0h96v96H0z"/></clipPath></defs><g clip-path="url(#a)"><path d="M82 83.6l-20-19 20-19v38zM17.2 86L37 67.3l1.4-1.3c5.4-5.1 13.9-5.1 19.3 0l1.4 1.3L78.8 86H17.2zM14 45.5l20 19-20 19v-38zM28 20h40v33.3l-9 8.6c-6.5-5-15.5-5-22 0l-9-8.6V20zm46 2.7V14H60L48 4 36 14H22v8.8L8 36.1V92h80V36.1L74 22.7z"/><path d="M48 42.3c-1.8 0-3.2-1.5-3.2-3.2 0-1.8 1.5-3.2 3.2-3.2 1.8 0 3.2 1.4 3.2 3.2 0 1.8-1.4 3.2-3.2 3.2zm0 9.7c2.3 0 4.5-.6 6.5-1.6.8-.5 1.1-1.5.7-2.3-.5-.8-1.5-1.1-2.3-.7-1.5.8-3.2 1.2-4.9 1.2-5.3 0-9.7-4.4-9.6-9.7 0-5.3 4.4-9.7 9.7-9.7 5.3 0 9.7 4.3 9.7 9.7v3.2c-1.8 0-3.2-1.4-3.2-3.2 0-3.2-2.2-5.9-5.3-6.5-3.1-.6-6.2 1.1-7.3 4-1.1 2.9 0 6.3 2.7 7.9 2.7 1.6 6.2 1.1 8.3-1.3 1.2 1.4 3 2.2 4.9 2.2 1.8 0 3.2-1.4 3.2-3.2v-3.2c0-7.2-5.8-13-13-13s-13 5.8-13 13C35 46.1 40.8 51.9 48 52z"/></g></svg>