<svg width="96" height="96" xmlns="http://www.w3.org/2000/svg" overflow="hidden"><defs><clipPath id="a"><path d="M48 737h96v96H48z"/></clipPath></defs><g clip-path="url(#a)" transform="translate(-48 -737)"><path d="M96.941 750a9.342 9.342 0 0 1 9.24 7.626c0 .007.009.011.015.006a9.716 9.716 0 0 1 5.836-1.972 9.461 9.461 0 0 1 9.431 9.434 8.035 8.035 0 0 1-.278 2.154c-.001.005.002.011.007.012h.005a8.484 8.484 0 0 1 2.276-.278 9.433 9.433 0 0 1 9.296 9.57 9.433 9.433 0 0 1-9.419 9.297 10.011 10.011 0 0 1-3.76-.843c-.004-.002-.01-.001-.012.004l-.001.005v.636a9.561 9.561 0 0 1-8.692 9.6 9.254 9.254 0 0 1-8.271-3.821.009.009 0 0 0-.013-.001c-.002.001-.003.003-.003.006-.492 5.197-5.103 9.012-10.3 8.52a9.452 9.452 0 0 1-8.562-9.393c0-.34.03-.68.09-1.015.002-.004 0-.009-.003-.011-.004-.002-.009-.001-.011.003-4.09 3.172-9.976 2.427-13.148-1.662a9.37 9.37 0 0 1-1.924-4.858h-.095a9.434 9.434 0 0 1-.123-18.867 8.484 8.484 0 0 1 2.276.278c.006.001.012-.003.013-.008v-.005a8.575 8.575 0 0 1-.277-1.954 9.4 9.4 0 0 1 17.247-5.4.01.01 0 0 0 .012.004.008.008 0 0 0 .004-.004A9.592 9.592 0 0 1 96.941 750m0-2a11.52 11.52 0 0 0-9.725 5.47 11.32 11.32 0 0 0-7.252-2.64c-6.268.008-11.364 5.055-11.432 11.322-6.315.068-11.38 5.242-11.311 11.557a11.434 11.434 0 0 0 9.821 11.198c1.526 6.088 7.699 9.787 13.787 8.261.383-.096.76-.212 1.131-.347 1.254 6.199 7.296 10.207 13.495 8.952a11.45 11.45 0 0 0 8.179-6.542 11.187 11.187 0 0 0 6.511 2.052 11.449 11.449 0 0 0 11.289-9.626c.631.125 1.273.19 1.916.192 6.315-.019 11.419-5.153 11.4-11.468-.019-6.244-5.044-11.319-11.287-11.399-.068-6.267-5.164-11.314-11.431-11.322-1.614.003-3.21.34-4.687.991A11.353 11.353 0 0 0 96.941 748zM77 802.018a4 4 0 1 1 0 8 4 4 0 0 1 0-8m0-2a6 6 0 1 0 0 12 6 6 0 0 0 0-12zM65 814.021a2.5 2.5 0 1 1 0 5 2.5 2.5 0 0 1 0-5m0-2a4.5 4.5 0 1 0 0 9 4.5 4.5 0 0 0 0-9z"/></g></svg>