<svg width="96" height="96" xmlns="http://www.w3.org/2000/svg" overflow="hidden"><defs><clipPath id="a"><path d="M0 0h96v96H0z"/></clipPath></defs><g clip-path="url(#a)"><path d="M26 52c0-12.1 9.9-22 22-22s22 9.9 22 22-9.9 22-22 22-22-9.9-22-22zm24-27.9V20h4c1.1 0 2-.9 2-2s-.9-2-2-2H42c-1.1 0-2 .9-2 2s.9 2 2 2h4v4.1c-14.5 1-26 13.1-26 27.9 0 7.6 3 14.5 8 19.6l-3.8 7.5c-.5 1-.1 2.2.9 2.7.3.1.6.2.9.2.7 0 1.4-.4 1.8-1.1l3.3-6.6C35.8 77.9 41.6 80 48 80c6.4 0 12.2-2.1 16.9-5.7l3.3 6.6c.4.7 1.1 1.1 1.8 1.1.3 0 .6-.1.9-.2 1-.5 1.4-1.7.9-2.7L68 71.6c4.9-5 8-12 8-19.6 0-14.8-11.5-26.9-26-27.9z"/><path d="M46 50H32v4h16c1.1 0 2-.9 2-2V36h-4v14zM80.2 24.2l-8.3-8.3c-1.6-1.6-4.1-1.6-5.7 0L61 21l14 14 5.2-5.2c1.5-1.5 1.5-4.1 0-5.6zM35 21l-5.2-5.2c-1.6-1.6-4.1-1.6-5.7 0l-8.3 8.3c-1.6 1.6-1.6 4.1 0 5.7L21 35l14-14z"/></g></svg>